<svg width="69" height="62" viewBox="0 0 69 62" fill="none" xmlns="http://www.w3.org/2000/svg">
<path d="M2.44559 0.354309V35.4286H0.139771V61.9292H68.5458V35.4286H66.24V0.354309H2.44559Z" fill="#00171F"/>
<path d="M7.05723 5.03088V35.4286H16.2805V9.70746H52.4051V35.4286H61.6284V5.03088H7.05723ZM20.8922 14.384V19.84H31.6527V14.384H20.8922ZM36.2643 14.384V35.4286H47.7934V14.384H36.2643ZM20.8922 24.5166V35.4286H31.6527V24.5166H20.8922ZM4.7514 40.1052V57.2526H11.6689V40.1052H4.7514ZM16.2805 40.1052V52.576H20.8922V40.1052H16.2805ZM25.5038 40.1052V52.576H30.1155V40.1052H25.5038ZM34.7271 40.1052V52.576H39.3387V40.1052H34.7271ZM43.9504 40.1052V57.2526H63.9342V40.1052H43.9504Z" fill="#CED0CE"/>
</svg>
