<svg width="230" height="40" viewBox="0 0 230 40" fill="none" xmlns="http://www.w3.org/2000/svg">
<path d="M54 31.25V12H70.5V14.75H73.25V23H70.5V25.75H59.5V31.25H54ZM59.5 23H67.75V14.75H59.5V23ZM76 31.25V17.5H78.75V14.75H81.5V12H89.75V14.75H92.5V17.5H95.25V31.25H89.75V25.75H81.5V31.25H76ZM81.5 23H89.75V17.5H87V14.75H84.25V17.5H81.5V23ZM98 31.25V12H103.5V14.75H106.25V17.5H109V20.25H111.75V12H117.25V31.25H111.75V25.75H109V23H106.25V20.25H103.5V31.25H98ZM120 31.25V12H139.25V14.75H125.5V20.25H136.5V23H125.5V28.5H139.25V31.25H120ZM144.75 31.25V12H150.25V28.5H161.25V31.25H144.75ZM175 12V14.75H172.25V12H175ZM177.75 14.75V17.5H175V14.75H177.75ZM186 31.25V12H191.5V20.25H194.25V17.5H197V14.75H199.75V12H205.25V14.75H202.5V17.5H199.75V20.25H197V23H199.75V25.75H202.5V28.5H205.25V31.25H197V28.5H194.25V25.75H191.5V31.25H186ZM210.75 31.25V28.5H216.25V14.75H210.75V12H227.25V14.75H221.75V28.5H227.25V31.25H210.75Z" fill="white"/>
<path d="M1.64884 0.133301V22.7619H0.181557V39.859H43.711V22.7619H42.2437V0.133301H1.64884Z" fill="white"/>
<path d="M4.5834 3.15051V22.7619H10.4525V6.16766H33.44V22.7619H39.3091V3.15051H4.5834ZM13.3871 9.1848V12.7048H20.2344V9.1848H13.3871ZM23.169 9.1848V22.7619H30.5054V9.1848H23.169ZM13.3871 15.7219V22.7619H20.2344V15.7219H13.3871ZM3.11612 25.7791V36.8419H7.51797V25.7791H3.11612ZM10.4525 25.7791V33.8248H13.3871V25.7791H10.4525ZM16.3217 25.7791V33.8248H19.2562V25.7791H16.3217ZM22.1908 25.7791V33.8248H25.1254V25.7791H22.1908ZM28.06 25.7791V36.8419H40.7764V25.7791H28.06Z" fill="black"/>
</svg>
