<svg width="60" height="60" viewBox="0 0 60 60" fill="none" xmlns="http://www.w3.org/2000/svg">
<path d="M20 40C19.0111 40 18.0444 40.2932 17.2222 40.8427C16.3999 41.3921 15.759 42.173 15.3806 43.0866C15.0022 44.0002 14.9031 45.0055 15.0961 45.9755C15.289 46.9454 15.7652 47.8363 16.4645 48.5355C17.1637 49.2348 18.0546 49.711 19.0246 49.9039C19.9945 50.0969 20.9998 49.9978 21.9134 49.6194C22.827 49.241 23.6079 48.6001 24.1574 47.7779C24.7068 46.9556 25 45.9889 25 45C24.9987 43.6743 24.4715 42.4033 23.5341 41.4659C22.5967 40.5285 21.3257 40.0013 20 40ZM20 47.5C19.5055 47.5 19.0222 47.3534 18.6111 47.0787C18.2 46.804 17.8795 46.4135 17.6903 45.9567C17.5011 45.4999 17.4516 44.9972 17.548 44.5123C17.6445 44.0273 17.8826 43.5819 18.2322 43.2322C18.5819 42.8826 19.0273 42.6445 19.5123 42.548C19.9972 42.4516 20.4999 42.5011 20.9567 42.6903C21.4135 42.8795 21.804 43.2 22.0787 43.6111C22.3534 44.0222 22.5 44.5055 22.5 45C22.4991 45.6628 22.2355 46.2982 21.7668 46.7668C21.2982 47.2355 20.6628 47.4991 20 47.5Z" fill="black"/>
<path d="M45 40C44.0111 40 43.0444 40.2932 42.2221 40.8427C41.3999 41.3921 40.759 42.173 40.3806 43.0866C40.0022 44.0002 39.9031 45.0055 40.0961 45.9755C40.289 46.9454 40.7652 47.8363 41.4645 48.5355C42.1637 49.2348 43.0546 49.711 44.0246 49.9039C44.9945 50.0969 45.9998 49.9978 46.9134 49.6194C47.8271 49.241 48.6079 48.6001 49.1574 47.7779C49.7068 46.9556 50 45.9889 50 45C49.9987 43.6743 49.4715 42.4033 48.5341 41.4659C47.5967 40.5285 46.3257 40.0013 45 40ZM45 47.5C44.5055 47.5 44.0222 47.3534 43.6111 47.0787C43.2 46.804 42.8795 46.4135 42.6903 45.9567C42.5011 45.4999 42.4516 44.9972 42.548 44.5123C42.6445 44.0273 42.8826 43.5819 43.2322 43.2322C43.5819 42.8826 44.0273 42.6445 44.5123 42.548C44.9972 42.4516 45.4999 42.5011 45.9567 42.6903C46.4135 42.8795 46.804 43.2 47.0787 43.6111C47.3534 44.0222 47.5 44.5055 47.5 45C47.4991 45.6628 47.2355 46.2982 46.7668 46.7668C46.2982 47.2355 45.6628 47.4991 45 47.5Z" fill="black"/>
<path d="M54.3763 16.9397L52.987 29.4398C52.8184 30.969 52.0911 32.3822 50.9447 33.4083C49.7984 34.4344 48.3135 35.0012 46.775 35H21.25C19.593 34.998 18.0044 34.3389 16.8328 33.1672C15.6611 31.9956 15.002 30.407 15 28.75V16.25C14.9989 15.2558 14.6034 14.3026 13.9004 13.5996C13.1974 12.8966 12.2442 12.5011 11.25 12.5H6.25C5.91848 12.5 5.60054 12.3683 5.36612 12.1339C5.1317 11.8995 5 11.5815 5 11.25C5 10.9185 5.1317 10.6005 5.36612 10.3661C5.60054 10.1317 5.91848 10 6.25 10H11.25C12.907 10.002 14.4956 10.6611 15.6672 11.8328C16.8389 13.0044 17.498 14.593 17.5 16.25V28.75C17.5011 29.7442 17.8966 30.6974 18.5996 31.4004C19.3026 32.1034 20.2558 32.4989 21.25 32.5H46.775C47.6981 32.5007 48.5889 32.1606 49.2767 31.5449C49.9644 30.9292 50.4007 30.0813 50.5018 29.1637L51.8908 16.6638C51.9487 16.1396 51.8956 15.6092 51.7349 15.107C51.5742 14.6047 51.3096 14.1419 50.9583 13.7487C50.6083 13.3536 50.178 13.0377 49.6961 12.8224C49.2142 12.607 48.6918 12.4971 48.164 12.5H26.25C25.9185 12.5 25.6005 12.3683 25.3661 12.1339C25.1317 11.8995 25 11.5815 25 11.25C25 10.9185 25.1317 10.6005 25.3661 10.3661C25.6005 10.1317 25.9185 10 26.25 10H48.164C49.0429 10.0003 49.9119 10.1858 50.7142 10.5446C51.5166 10.9033 52.2342 11.4272 52.8204 12.0821C53.4066 12.7369 53.8482 13.508 54.1163 14.345C54.3843 15.1821 54.4729 16.0662 54.3763 16.9397Z" fill="black"/>
</svg>
