<svg width="24" height="22" viewBox="0 0 24 22" fill="none" xmlns="http://www.w3.org/2000/svg">
<path d="M1.00001 0V12.375H0.200012V21.725H23.9333V12.375H23.1333V0H1.00001Z" fill="#00171F"/>
<path d="M2.59999 1.6499V12.3749H5.79999V3.2999H18.3333V12.3749H21.5333V1.6499H2.59999ZM7.39999 4.9499V6.8749H11.1333V4.9499H7.39999ZM12.7333 4.9499V12.3749H16.7333V4.9499H12.7333ZM7.39999 8.5249V12.3749H11.1333V8.5249H7.39999ZM1.79999 14.0249V20.0749H4.19999V14.0249H1.79999ZM5.79999 14.0249V18.4249H7.39999V14.0249H5.79999ZM8.99999 14.0249V18.4249H10.6V14.0249H8.99999ZM12.2 14.0249V18.4249H13.8V14.0249H12.2ZM15.4 14.0249V20.0749H22.3333V14.0249H15.4Z" fill="#CED0CE"/>
</svg>
