<svg width="251" height="43" viewBox="0 0 251 43" fill="none" xmlns="http://www.w3.org/2000/svg">
<path d="M1.70122 0.245605V24.5713H0.097168V42.9507H47.684V24.5713H46.08V0.245605H1.70122Z" fill="#00171F"/>
<path d="M4.90947 3.48926V24.5715H11.3257V6.73269H36.4558V24.5715H42.872V3.48926H4.90947ZM14.5338 9.97611V13.7601H22.0193V9.97611H14.5338ZM25.2274 9.97611V24.5715H33.2477V9.97611H25.2274ZM14.5338 17.0035V24.5715H22.0193V17.0035H14.5338ZM3.30542 27.815V39.7075H8.11757V27.815H3.30542ZM11.3257 27.815V36.4641H14.5338V27.815H11.3257ZM17.7419 27.815V36.4641H20.95V27.815H17.7419ZM24.1581 27.815V36.4641H27.3662V27.815H24.1581ZM30.5743 27.815V39.7075H44.476V27.815H30.5743Z" fill="#CED0CE"/>
<path d="M59 34V13H77V16H80V25H77V28H65V34H59ZM65 25H74V16H65V25ZM83 34V19H86V16H89V13H98V16H101V19H104V34H98V28H89V34H83ZM89 25H98V19H95V16H92V19H89V25ZM107 34V13H113V16H116V19H119V22H122V13H128V34H122V28H119V25H116V22H113V34H107ZM131 34V13H152V16H137V22H149V25H137V31H152V34H131ZM158 34V13H164V31H176V34H158ZM191 13V16H188V13H191ZM194 16V19H191V16H194ZM203 34V13H209V22H212V19H215V16H218V13H224V16H221V19H218V22H215V25H218V28H221V31H224V34H215V31H212V28H209V34H203ZM230 34V31H236V16H230V13H248V16H242V31H248V34H230Z" fill="#00171F"/>
</svg>
