<svg width="37" height="37" viewBox="0 0 37 37" fill="none" xmlns="http://www.w3.org/2000/svg">
<path d="M18.5732 10.1321C16.9016 10.1321 15.2676 10.6278 13.8778 11.5564C12.488 12.4851 11.4047 13.805 10.7651 15.3493C10.1254 16.8936 9.95805 18.5929 10.2841 20.2323C10.6102 21.8717 11.4152 23.3776 12.5971 24.5596C13.7791 25.7415 15.285 26.5464 16.9244 26.8725C18.5638 27.1986 20.2631 27.0313 21.8074 26.3916C23.3517 25.7519 24.6716 24.6687 25.6002 23.2789C26.5289 21.8891 27.0246 20.2551 27.0246 18.5835C27.022 16.3429 26.1308 14.1947 24.5464 12.6103C22.962 11.0259 20.8138 10.1347 18.5732 10.1321ZM18.5732 24.8302C17.3377 24.8302 16.1299 24.4639 15.1027 23.7775C14.0754 23.0911 13.2748 22.1155 12.802 20.974C12.3292 19.8326 12.2055 18.5766 12.4465 17.3649C12.6875 16.1531 13.2825 15.0401 14.1561 14.1665C15.0297 13.2928 16.1428 12.6979 17.3545 12.4569C18.5662 12.2158 19.8222 12.3395 20.9637 12.8123C22.1051 13.2851 23.0807 14.0858 23.7671 15.1131C24.4535 16.1403 24.8198 17.3481 24.8198 18.5835C24.818 20.2397 24.1592 21.8275 22.9882 22.9985C21.8171 24.1696 20.2293 24.8283 18.5732 24.8302ZM26.6571 0.578369H10.4892C7.85886 0.581363 5.3371 1.62759 3.47716 3.48753C1.61722 5.34747 0.570987 7.86923 0.567993 10.4996V26.6675C0.570987 29.2978 1.61722 31.8196 3.47716 33.6795C5.3371 35.5395 7.85886 36.5857 10.4892 36.5887H26.6571C29.2875 36.5857 31.8092 35.5395 33.6692 33.6795C35.5291 31.8196 36.5753 29.2978 36.5783 26.6675V10.4996C36.5753 7.86923 35.5291 5.34747 33.6692 3.48753C31.8092 1.62759 29.2875 0.581363 26.6571 0.578369ZM34.3736 26.6675C34.3713 28.7133 33.5576 30.6747 32.111 32.1213C30.6643 33.568 28.7029 34.3817 26.6571 34.384H10.4892C8.44337 34.3817 6.48198 33.568 5.03535 32.1213C3.58872 30.6747 2.775 28.7133 2.77271 26.6675V10.4996C2.775 8.45374 3.58872 6.49235 5.03535 5.04573C6.48198 3.5991 8.44337 2.78538 10.4892 2.78308H26.6571C28.7029 2.78538 30.6643 3.5991 32.111 5.04573C33.5576 6.49235 34.3713 8.45374 34.3736 10.4996V26.6675ZM29.9642 9.02977C29.9642 9.39315 29.8564 9.74837 29.6545 10.0505C29.4527 10.3526 29.1657 10.5881 28.83 10.7272C28.4943 10.8662 28.1249 10.9026 27.7685 10.8317C27.4121 10.7608 27.0847 10.5859 26.8278 10.3289C26.5708 10.072 26.3959 9.7446 26.325 9.38821C26.2541 9.03181 26.2905 8.6624 26.4295 8.32668C26.5686 7.99097 26.8041 7.70403 27.1062 7.50215C27.4083 7.30026 27.7635 7.19251 28.1269 7.19251C28.614 7.19308 29.081 7.38684 29.4254 7.73127C29.7699 8.07569 29.9636 8.54268 29.9642 9.02977Z" fill="black"/>
</svg>
