<svg width="660" height="660" viewBox="0 0 660 660" fill="none" xmlns="http://www.w3.org/2000/svg">
<rect width="660" height="660" fill="#E6E8E6"/>
<rect x="445" y="445" width="180" height="180" fill="#CED0CE"/>
<path d="M465.503 470.44V534.42H461.061V582.762H592.842V534.42H588.4V470.44H465.503Z" fill="#000011"/>
<path d="M474.387 478.97V534.42H492.155V487.501H561.748V534.42H579.516V478.97H474.387ZM501.039 496.032V505.985H521.769V496.032H501.039ZM530.653 496.032V534.42H552.863V496.032H530.653ZM501.039 514.515V534.42H521.769V514.515H501.039ZM469.945 542.951V574.231H483.271V542.951H469.945ZM492.155 542.951V565.7H501.039V542.951H492.155ZM509.923 542.951V565.7H518.808V542.951H509.923ZM527.692 542.951V565.7H536.576V542.951H527.692ZM545.46 542.951V574.231H583.958V542.951H545.46Z" fill="#CED0CE"/>
<rect x="240" y="240" width="180" height="180" fill="#CED0CE"/>
<path d="M258.935 262.556V339.029H253.786V396.809H406.551V339.029H401.401V262.556H258.935Z" fill="#CED0CE"/>
<path d="M269.234 272.752V339.029H289.832V282.949H370.505V339.029H391.103V272.752H269.234ZM300.13 293.145V305.041H324.161V293.145H300.13ZM334.46 293.145V339.029H360.206V293.145H334.46ZM300.13 315.238V339.029H324.161V315.238H300.13ZM264.085 349.226V386.613H279.533V349.226H264.085ZM289.832 349.226V376.417H300.13V349.226H289.832ZM310.429 349.226V376.417H320.728V349.226H310.429ZM331.027 349.226V376.417H341.325V349.226H331.027ZM351.624 349.226V386.613H396.252V349.226H351.624Z" fill="#00171F"/>
<rect x="35" y="240" width="180" height="180" fill="#CED0CE"/>
<path d="M62.1472 268.332V332.504H57.7335V380.989H188.675V332.504H184.261V268.332H62.1472Z" fill="#000011"/>
<path d="M70.9747 276.888V332.504H88.6297V285.445H157.778V332.504H175.433V276.888H70.9747ZM97.4572 294.001V303.983H118.055V294.001H97.4572ZM126.882 294.001V332.504H148.951V294.001H126.882ZM97.4572 312.539V332.504H118.055V312.539H97.4572ZM66.5609 341.06V372.433H79.8022V341.06H66.5609ZM88.6297 341.06V363.877H97.4572V341.06H88.6297ZM106.285 341.06V363.877H115.112V341.06H106.285ZM123.94 341.06V363.877H132.767V341.06H123.94ZM141.595 341.06V372.433H179.847V341.06H141.595Z" fill="#CED0CE"/>
<rect x="445" y="35" width="180" height="180" fill="#CED0CE"/>
<path d="M456.399 56.0886V131.753H451.294V188.921H602.744V131.753H597.639V56.0886H456.399Z" fill="#CED0CE"/>
<path d="M466.609 66.177V131.753H487.029V76.2656H567.009V131.753H587.429V66.177H466.609ZM497.24 86.3541V98.1241H521.063V86.3541H497.24ZM531.273 86.3541V131.753H556.799V86.3541H531.273ZM497.24 108.213V131.753H521.063V108.213H497.24ZM461.504 141.841V178.833H476.819V141.841H461.504ZM487.029 141.841V168.744H497.24V141.841H487.029ZM507.45 141.841V168.744H517.66V141.841H507.45ZM527.87 141.841V168.744H538.08V141.841H527.87ZM548.29 141.841V178.833H592.534V141.841H548.29Z" fill="#00171F"/>
<rect x="240" y="445" width="180" height="180" fill="#CED0CE"/>
<g filter="url(#filter0_d_39_66)">
<path d="M255 482.75V460H277.75V463.25H261.5V469.75H274.5V473H261.5V479.5H277.75V482.75H255ZM303.75 466.5V482.75H297.25V469.75H290.75V479.5H287.5V482.75H281V476.25H284.25V473H287.5V466.5H303.75ZM310.25 482.75V479.5H307V469.75H310.25V466.5H326.5V469.75H329.75V476.25H313.5V479.5H326.5V482.75H310.25ZM313.5 473H323.25V469.75H313.5V473ZM346 469.75H349.25V473H352.5V476.25H355.75V482.75H349.25V476.25H339.5V482.75H333V466.5H339.5V473H346V469.75ZM355.75 466.5V469.75H349.25V466.5H355.75ZM368.75 482.75V469.75H362.25V466.5H381.75V469.75H375.25V482.75H368.75ZM277.75 495.75V505.5H274.5V508.75H261.5V512H255V492.5H261.5V495.75H264.75V499H261.5V505.5H271.25V495.75H264.75V492.5H274.5V495.75H277.75ZM284.25 508.75V505.5H281V495.75H284.25V492.5H300.5V495.75H303.75V505.5H300.5V508.75H284.25ZM287.5 505.5H297.25V495.75H287.5V505.5ZM307 508.75V492.5H313.5V499H323.25V492.5H329.75V508.75H323.25V502.25H313.5V508.75H307ZM333 508.75V492.5H339.5V499H349.25V492.5H355.75V508.75H349.25V502.25H339.5V508.75H333ZM368.75 489.25V486H375.25V489.25H368.75ZM362.25 508.75V505.5H368.75V495.75H365.5V492.5H375.25V505.5H381.75V508.75H362.25ZM255 534.75V518.5H274.5V521.75H277.75V525H274.5V528.25H277.75V531.5H274.5V534.75H255ZM261.5 525H271.25V521.75H261.5V525ZM261.5 531.5H271.25V528.25H261.5V531.5ZM287.5 528.25H290.75V531.5H287.5V534.75H281V518.5H287.5V528.25ZM303.75 518.5V534.75H297.25V525H294V521.75H297.25V518.5H303.75ZM290.75 525H294V528.25H290.75V525ZM329.75 531.5H333V538H326.5V534.75H313.5V538H307V531.5H310.25V528.25H313.5V518.5H329.75V531.5ZM316.75 531.5H323.25V521.75H316.75V531.5ZM258.25 560.75V557.5H255V554.25H258.25V551H271.25V547.75H258.25V544.5H274.5V547.75H277.75V560.75H258.25ZM261.5 557.5H271.25V554.25H261.5V557.5ZM281 560.75V544.5H287.5V551H297.25V544.5H303.75V560.75H297.25V554.25H287.5V560.75H281ZM307 560.75V544.5H313.5V551H323.25V544.5H329.75V560.75H323.25V554.25H313.5V560.75H307ZM333 560.75V554.25H336.25V551H333V547.75H336.25V544.5H355.75V560.75H349.25V554.25H339.5V560.75H333ZM339.5 551H349.25V547.75H339.5V551Z" fill="#F1D015"/>
</g>
<rect x="35" y="445" width="180" height="180" fill="#CED0CE"/>
<g filter="url(#filter1_d_39_66)">
<path d="M50 486V479.5H53.25V473H56.5V460H72.75V479.5H76V486H69.5V482.75H56.5V486H50ZM59.75 479.5H66.25V463.25H59.75V479.5ZM98.75 469.75V479.5H95.5V482.75H82.5V486H76V466.5H82.5V469.75H85.75V473H82.5V479.5H92.25V469.75H85.75V466.5H95.5V469.75H98.75ZM105.25 486V482.75H118.25V479.5H105.25V476.25H102V466.5H108.5V476.25H118.25V466.5H124.75V482.75H121.5V486H105.25ZM141 469.75H144.25V473H147.5V476.25H150.75V482.75H144.25V476.25H134.5V482.75H128V466.5H134.5V473H141V469.75ZM150.75 466.5V469.75H144.25V466.5H150.75ZM157.25 482.75V479.5H154V469.75H157.25V466.5H173.5V469.75H176.75V479.5H173.5V482.75H157.25ZM160.5 479.5H170.25V469.75H160.5V479.5ZM50 508.75V492.5H69.5V495.75H72.75V499H69.5V502.25H72.75V505.5H69.5V508.75H50ZM56.5 499H66.25V495.75H56.5V499ZM56.5 505.5H66.25V502.25H56.5V505.5ZM79.25 508.75V505.5H76V502.25H79.25V499H92.25V495.75H79.25V492.5H95.5V495.75H98.75V508.75H79.25ZM82.5 505.5H92.25V502.25H82.5V505.5ZM102 508.75V492.5H108.5V499H118.25V492.5H124.75V508.75H118.25V502.25H108.5V508.75H102ZM137.75 489.25V486H144.25V489.25H137.75ZM131.25 508.75V505.5H137.75V495.75H134.5V492.5H144.25V505.5H150.75V508.75H131.25ZM50 534.75V528.25H53.25V525H50V518.5H56.5V525H59.75V518.5H63V525H66.25V518.5H72.75V525H69.5V528.25H72.75V534.75H66.25V528.25H63V534.75H59.75V528.25H56.5V534.75H50ZM79.25 538V534.75H92.25V531.5H79.25V528.25H76V518.5H82.5V528.25H92.25V518.5H98.75V534.75H95.5V538H79.25ZM124.75 521.75V531.5H121.5V534.75H108.5V538H102V518.5H108.5V521.75H111.75V525H108.5V531.5H118.25V521.75H111.75V518.5H121.5V521.75H124.75ZM128 534.75V518.5H134.5V525H144.25V518.5H150.75V534.75H144.25V528.25H134.5V534.75H128ZM53.25 560.75V557.5H50V554.25H53.25V551H66.25V547.75H53.25V544.5H69.5V547.75H72.75V560.75H53.25ZM56.5 557.5H66.25V554.25H56.5V557.5ZM98.75 544.5V560.75H92.25V547.75H85.75V557.5H82.5V560.75H76V554.25H79.25V551H82.5V544.5H98.75ZM108.5 554.25H111.75V557.5H108.5V560.75H102V544.5H108.5V554.25ZM124.75 544.5V560.75H118.25V551H115V547.75H118.25V544.5H124.75ZM111.75 551H115V554.25H111.75V551Z" fill="#F1D015"/>
</g>
<rect x="445" y="240" width="180" height="180" fill="#CED0CE"/>
<g filter="url(#filter2_d_39_66)">
<path d="M460 277.75V255H466.5V264.75H476.25V255H482.75V277.75H476.25V268H466.5V277.75H460ZM489.25 277.75V274.5H486V264.75H489.25V261.5H505.5V264.75H508.75V274.5H505.5V277.75H489.25ZM492.5 274.5H502.25V264.75H492.5V274.5ZM515.25 277.75V274.5H512V264.75H515.25V261.5H531.5V264.75H534.75V268H528.25V264.75H518.5V274.5H528.25V271.25H534.75V274.5H531.5V277.75H515.25ZM547.75 277.75V264.75H541.25V261.5H560.75V264.75H554.25V277.75H547.75ZM567.25 277.75V274.5H564V271.25H567.25V268H580.25V264.75H567.25V261.5H583.5V264.75H586.75V277.75H567.25ZM570.5 274.5H580.25V271.25H570.5V274.5ZM482.75 287.5V303.75H476.25V290.75H469.75V300.5H466.5V303.75H460V297.25H463.25V294H466.5V287.5H482.75ZM486 303.75V287.5H492.5V294H505.5V297.25H508.75V300.5H505.5V303.75H486ZM492.5 300.5H502.25V297.25H492.5V300.5ZM512 303.75V297.25H515.25V294H512V287.5H518.5V294H521.75V287.5H525V294H528.25V287.5H534.75V294H531.5V297.25H534.75V303.75H528.25V297.25H525V303.75H521.75V297.25H518.5V303.75H512ZM547.75 284.25V281H554.25V284.25H547.75ZM541.25 303.75V300.5H547.75V290.75H544.5V287.5H554.25V300.5H560.75V303.75H541.25Z" fill="#F1D015"/>
</g>
<rect x="240" y="35" width="180" height="180" fill="#CED0CE"/>
<g filter="url(#filter3_d_39_66)">
<path d="M255 72.75V50H261.5V63H264.75V59.75H268V56.5H271.25V50H277.75V72.75H271.25V63H268V66.25H264.75V69.5H261.5V72.75H255ZM284.25 72.75V69.5H281V59.75H284.25V56.5H300.5V59.75H303.75V63H297.25V59.75H287.5V69.5H297.25V66.25H303.75V69.5H300.5V72.75H284.25ZM316.75 72.75V59.75H310.25V56.5H329.75V59.75H323.25V72.75H316.75ZM336.25 72.75V69.5H333V59.75H336.25V56.5H352.5V59.75H355.75V69.5H352.5V72.75H336.25ZM339.5 69.5H349.25V59.75H339.5V69.5ZM277.75 85.75V95.5H274.5V98.75H261.5V102H255V82.5H261.5V85.75H264.75V89H261.5V95.5H271.25V85.75H264.75V82.5H274.5V85.75H277.75ZM290.75 79.25V76H297.25V79.25H290.75ZM284.25 98.75V95.5H290.75V85.75H287.5V82.5H297.25V95.5H303.75V98.75H284.25ZM307 98.75V92.25H310.25V89H307V85.75H310.25V82.5H329.75V98.75H323.25V92.25H313.5V98.75H307ZM313.5 89H323.25V85.75H313.5V89ZM258.25 124.75V121.5H255V118.25H258.25V115H271.25V111.75H258.25V108.5H274.5V111.75H277.75V124.75H258.25ZM261.5 121.5H271.25V118.25H261.5V121.5ZM303.75 111.75V121.5H300.5V124.75H287.5V128H281V108.5H287.5V111.75H290.75V115H287.5V121.5H297.25V111.75H290.75V108.5H300.5V111.75H303.75ZM307 124.75V121.5H310.25V118.25H313.5V115H310.25V111.75H307V108.5H313.5V111.75H316.75V115H320V111.75H323.25V108.5H329.75V111.75H326.5V115H323.25V118.25H326.5V121.5H329.75V124.75H323.25V121.5H320V118.25H316.75V121.5H313.5V124.75H307ZM342.75 105.25V102H349.25V105.25H342.75ZM336.25 124.75V121.5H342.75V111.75H339.5V108.5H349.25V121.5H355.75V124.75H336.25ZM368.75 124.75V111.75H362.25V108.5H381.75V111.75H375.25V124.75H368.75ZM258.25 150.75V147.5H255V137.75H258.25V134.5H274.5V137.75H277.75V144.25H261.5V147.5H274.5V150.75H258.25ZM261.5 141H271.25V137.75H261.5V141ZM294 137.75H297.25V141H300.5V144.25H303.75V150.75H297.25V144.25H287.5V150.75H281V134.5H287.5V141H294V137.75ZM303.75 134.5V137.75H297.25V134.5H303.75ZM316.75 150.75V137.75H310.25V134.5H329.75V137.75H323.25V150.75H316.75ZM258.25 180V176.75H271.25V173.5H258.25V170.25H255V160.5H261.5V170.25H271.25V160.5H277.75V176.75H274.5V180H258.25ZM303.75 163.75V173.5H300.5V176.75H287.5V180H281V160.5H287.5V163.75H290.75V167H287.5V173.5H297.25V163.75H290.75V160.5H300.5V163.75H303.75ZM313.5 170.25H316.75V173.5H313.5V176.75H307V160.5H313.5V170.25ZM329.75 160.5V176.75H323.25V167H320V163.75H323.25V160.5H329.75ZM316.75 167H320V170.25H316.75V167Z" fill="#F1D015"/>
</g>
<rect x="35" y="35" width="180" height="180" fill="#CED0CE"/>
<g filter="url(#filter4_d_39_66)">
<path d="M59.75 72.75V69.5H53.25V66.25H50V56.5H53.25V53.25H59.75V50H63V53.25H69.5V56.5H72.75V66.25H69.5V69.5H63V72.75H59.75ZM56.5 66.25H59.75V56.5H56.5V66.25ZM63 66.25H66.25V56.5H63V66.25ZM79.25 72.75V69.5H76V59.75H79.25V56.5H95.5V59.75H98.75V69.5H95.5V72.75H79.25ZM82.5 69.5H92.25V59.75H82.5V69.5ZM111.75 72.75V59.75H105.25V56.5H124.75V59.75H118.25V72.75H111.75ZM131.25 72.75V69.5H128V59.75H131.25V56.5H147.5V59.75H150.75V69.5H147.5V72.75H131.25ZM134.5 69.5H144.25V59.75H134.5V69.5ZM157.25 63V59.75H176.75V63H157.25ZM72.75 85.75V95.5H69.5V98.75H56.5V102H50V82.5H56.5V85.75H59.75V89H56.5V95.5H66.25V85.75H59.75V82.5H69.5V85.75H72.75ZM79.25 98.75V95.5H76V85.75H79.25V82.5H95.5V85.75H98.75V92.25H82.5V95.5H95.5V98.75H79.25ZM82.5 89H92.25V85.75H82.5V89ZM102 98.75V82.5H124.75V98.75H118.25V85.75H108.5V98.75H102ZM131.25 98.75V95.5H128V85.75H131.25V82.5H147.5V85.75H150.75V95.5H147.5V98.75H131.25ZM134.5 95.5H144.25V85.75H134.5V95.5ZM176.75 85.75V95.5H173.5V98.75H160.5V102H154V82.5H160.5V85.75H163.75V89H160.5V95.5H170.25V85.75H163.75V82.5H173.5V85.75H176.75ZM59.75 124.75V111.75H53.25V108.5H72.75V111.75H66.25V124.75H59.75ZM79.25 124.75V121.5H76V118.25H79.25V115H92.25V111.75H79.25V108.5H95.5V111.75H98.75V124.75H79.25ZM82.5 121.5H92.25V118.25H82.5V121.5ZM102 124.75V118.25H105.25V115H102V108.5H108.5V115H111.75V108.5H115V115H118.25V108.5H124.75V115H121.5V118.25H124.75V124.75H118.25V118.25H115V124.75H111.75V118.25H108.5V124.75H102ZM137.75 105.25V102H144.25V105.25H137.75ZM131.25 124.75V121.5H137.75V111.75H134.5V108.5H144.25V121.5H150.75V124.75H131.25Z" fill="#F1D015"/>
</g>
<defs>
<filter id="filter0_d_39_66" x="255" y="460" width="128.75" height="104.75" filterUnits="userSpaceOnUse" color-interpolation-filters="sRGB">
<feFlood flood-opacity="0" result="BackgroundImageFix"/>
<feColorMatrix in="SourceAlpha" type="matrix" values="0 0 0 0 0 0 0 0 0 0 0 0 0 0 0 0 0 0 127 0" result="hardAlpha"/>
<feOffset dx="2" dy="4"/>
<feComposite in2="hardAlpha" operator="out"/>
<feColorMatrix type="matrix" values="0 0 0 0 0 0 0 0 0 0 0 0 0 0 0 0 0 0 1 0"/>
<feBlend mode="normal" in2="BackgroundImageFix" result="effect1_dropShadow_39_66"/>
<feBlend mode="normal" in="SourceGraphic" in2="effect1_dropShadow_39_66" result="shape"/>
</filter>
<filter id="filter1_d_39_66" x="50" y="460" width="128.75" height="104.75" filterUnits="userSpaceOnUse" color-interpolation-filters="sRGB">
<feFlood flood-opacity="0" result="BackgroundImageFix"/>
<feColorMatrix in="SourceAlpha" type="matrix" values="0 0 0 0 0 0 0 0 0 0 0 0 0 0 0 0 0 0 127 0" result="hardAlpha"/>
<feOffset dx="2" dy="4"/>
<feComposite in2="hardAlpha" operator="out"/>
<feColorMatrix type="matrix" values="0 0 0 0 0 0 0 0 0 0 0 0 0 0 0 0 0 0 1 0"/>
<feBlend mode="normal" in2="BackgroundImageFix" result="effect1_dropShadow_39_66"/>
<feBlend mode="normal" in="SourceGraphic" in2="effect1_dropShadow_39_66" result="shape"/>
</filter>
<filter id="filter2_d_39_66" x="460" y="255" width="128.75" height="52.75" filterUnits="userSpaceOnUse" color-interpolation-filters="sRGB">
<feFlood flood-opacity="0" result="BackgroundImageFix"/>
<feColorMatrix in="SourceAlpha" type="matrix" values="0 0 0 0 0 0 0 0 0 0 0 0 0 0 0 0 0 0 127 0" result="hardAlpha"/>
<feOffset dx="2" dy="4"/>
<feComposite in2="hardAlpha" operator="out"/>
<feColorMatrix type="matrix" values="0 0 0 0 0 0 0 0 0 0 0 0 0 0 0 0 0 0 1 0"/>
<feBlend mode="normal" in2="BackgroundImageFix" result="effect1_dropShadow_39_66"/>
<feBlend mode="normal" in="SourceGraphic" in2="effect1_dropShadow_39_66" result="shape"/>
</filter>
<filter id="filter3_d_39_66" x="255" y="50" width="128.75" height="134" filterUnits="userSpaceOnUse" color-interpolation-filters="sRGB">
<feFlood flood-opacity="0" result="BackgroundImageFix"/>
<feColorMatrix in="SourceAlpha" type="matrix" values="0 0 0 0 0 0 0 0 0 0 0 0 0 0 0 0 0 0 127 0" result="hardAlpha"/>
<feOffset dx="2" dy="4"/>
<feComposite in2="hardAlpha" operator="out"/>
<feColorMatrix type="matrix" values="0 0 0 0 0 0 0 0 0 0 0 0 0 0 0 0 0 0 1 0"/>
<feBlend mode="normal" in2="BackgroundImageFix" result="effect1_dropShadow_39_66"/>
<feBlend mode="normal" in="SourceGraphic" in2="effect1_dropShadow_39_66" result="shape"/>
</filter>
<filter id="filter4_d_39_66" x="50" y="50" width="128.75" height="78.75" filterUnits="userSpaceOnUse" color-interpolation-filters="sRGB">
<feFlood flood-opacity="0" result="BackgroundImageFix"/>
<feColorMatrix in="SourceAlpha" type="matrix" values="0 0 0 0 0 0 0 0 0 0 0 0 0 0 0 0 0 0 127 0" result="hardAlpha"/>
<feOffset dx="2" dy="4"/>
<feComposite in2="hardAlpha" operator="out"/>
<feColorMatrix type="matrix" values="0 0 0 0 0 0 0 0 0 0 0 0 0 0 0 0 0 0 1 0"/>
<feBlend mode="normal" in2="BackgroundImageFix" result="effect1_dropShadow_39_66"/>
<feBlend mode="normal" in="SourceGraphic" in2="effect1_dropShadow_39_66" result="shape"/>
</filter>
</defs>
</svg>
