<svg width="371" height="1195" viewBox="0 0 371 1195" fill="none" xmlns="http://www.w3.org/2000/svg">
<g filter="url(#filter0_i_588_424)">
<rect x="71" width="300" height="1195" fill="#D9D9D9"/>
</g>
<g filter="url(#filter1_i_588_424)">
<rect x="71" y="856" width="300" height="300" fill="#D9D9D9"/>
</g>
<g filter="url(#filter2_i_588_424)">
<rect x="71" y="428" width="300" height="300" fill="#D9D9D9"/>
</g>
<g filter="url(#filter3_i_588_424)">
<rect x="71" width="300" height="300" fill="#D9D9D9"/>
</g>
<g clip-path="url(#clip0_588_424)">
<g clip-path="url(#clip1_588_424)">
<path fill-rule="evenodd" clip-rule="evenodd" d="M193.367 1145.5V1165.01H221.445H249.523V1145.5V1126H221.445H193.367V1145.5ZM238.228 1144.67V1160.85L221.471 1160.84C212.255 1160.83 204.703 1160.82 204.69 1160.82C204.677 1160.81 204.654 1153.54 204.638 1144.65L204.609 1128.5H221.418H238.228V1144.67Z" fill="#E6E8E6"/>
<path fill-rule="evenodd" clip-rule="evenodd" d="M188.722 1145.5V1165.01H191.045H193.367V1145.5V1126H191.045H188.722V1145.5ZM204.555 1128.93V1129.35H219.122H233.689L233.715 1145.1L233.742 1160.85L235.985 1160.86L238.228 1160.87V1144.69V1128.5H221.392H204.555V1128.93Z" fill="#A4ACA4"/>
</g>
<g clip-path="url(#clip2_588_424)">
<path fill-rule="evenodd" clip-rule="evenodd" d="M193.367 747.509V797.018H221.445H249.523V747.509V698H221.445H193.367V747.509ZM238.228 745.405V786.473L221.471 786.438C212.255 786.419 204.703 786.394 204.69 786.383C204.677 786.372 204.654 767.907 204.638 745.349L204.609 704.337H221.418H238.228V745.405Z" fill="#E6E8E6"/>
<path fill-rule="evenodd" clip-rule="evenodd" d="M188.722 747.509V797.018H191.045H193.367V747.509V698H191.045H188.722V747.509ZM204.555 705.427V706.516H219.122H233.689L233.715 746.494L233.742 786.473L235.985 786.499L238.228 786.526V745.432V704.337H221.392H204.555V705.427Z" fill="#A4ACA4"/>
</g>
<g clip-path="url(#clip3_588_424)">
<path fill-rule="evenodd" clip-rule="evenodd" d="M192.985 836.509V886.018H220.949H248.913V836.509V787H220.949H192.985V836.509ZM237.664 834.405V875.473L220.975 875.438C211.796 875.419 204.275 875.394 204.262 875.383C204.249 875.372 204.226 856.907 204.21 834.349L204.181 793.337H220.922H237.664V834.405Z" fill="#E6E8E6"/>
<path fill-rule="evenodd" clip-rule="evenodd" d="M188.359 836.509V886.018H190.672H192.985V836.509V787H190.672H188.359V836.509ZM204.128 794.427V795.516H218.636H233.143L233.17 835.494L233.196 875.473L235.43 875.499L237.664 875.526V834.432V793.337H220.896H204.128V794.427Z" fill="#A4ACA4"/>
</g>
<g clip-path="url(#clip4_588_424)">
<path fill-rule="evenodd" clip-rule="evenodd" d="M192.985 408.509V458.018H220.949H248.913V408.509V359H220.949H192.985V408.509ZM237.664 406.405V447.473L220.975 447.438C211.796 447.419 204.275 447.394 204.262 447.383C204.249 447.372 204.226 428.907 204.21 406.349L204.181 365.337H220.922H237.664V406.405Z" fill="#E6E8E6"/>
<path fill-rule="evenodd" clip-rule="evenodd" d="M188.359 408.509V458.018H190.672H192.985V408.509V359H190.672H188.359V408.509ZM204.128 366.427V367.516H218.636H233.143L233.17 407.494L233.196 447.473L235.43 447.499L237.664 447.526V406.432V365.337H220.896H204.128V366.427Z" fill="#A4ACA4"/>
</g>
<g clip-path="url(#clip5_588_424)">
<path fill-rule="evenodd" clip-rule="evenodd" d="M193.367 319.509V369.018H221.445H249.523V319.509V270H221.445H193.367V319.509ZM238.228 317.405V358.473L221.471 358.438C212.255 358.419 204.703 358.394 204.69 358.383C204.677 358.372 204.654 339.907 204.638 317.349L204.609 276.337H221.418H238.228V317.405Z" fill="#E6E8E6"/>
<path fill-rule="evenodd" clip-rule="evenodd" d="M188.722 319.509V369.018H191.045H193.367V319.509V270H191.045H188.722V319.509ZM204.555 277.427V278.516H219.122H233.689L233.715 318.494L233.742 358.473L235.985 358.499L238.228 358.526V317.432V276.337H221.392H204.555V277.427Z" fill="#A4ACA4"/>
</g>
<path fill-rule="evenodd" clip-rule="evenodd" d="M193.09 904.545V923.091H187.423H181.755V917.636V912.182H176.089H170.422V906.727V901.273H164.755H159.088V895.818V890.364H130.752H102.417V917.636V944.909H108.084H113.751V950.364V955.818H119.418H125.085V961.273V966.727H130.752H136.419V972.182V977.636H142.086H147.753V983.091V988.545H170.422H193.09V1004.91V1021.27H170.422H147.753V1026.73V1032.18H142.086H136.419V1037.64V1043.09H130.752H125.085V1048.55V1054H119.418H113.751V1059.45V1064.91H108.084H102.417V1092.18V1119.45H130.752H159.088V1114V1108.55H164.755H170.422V1103.09V1097.64H176.089H181.755V1092.18V1086.73H187.423H193.09V1106.36V1126H221.425H249.76V1106.36V1086.73H255.427H261.094V1092.18V1097.64H266.762H272.429V1103.09V1108.55H278.096H283.763V1114V1119.45H312.098H340.433V1092.18V1064.91H334.766H329.099V1059.45V1054H323.432H317.765V1048.55V1043.09H312.098H306.431V1037.64V1032.18H300.764H295.097V1026.73V1021.27H272.429H249.76V1004.91V988.545H272.429H295.097V983.091V977.636H300.764H306.431V972.182V966.727H312.098H317.765V961.273V955.818H323.432H329.099V950.364V944.909H334.766H340.433V917.636V890.364H312.098H283.763V895.818V901.273H278.096H272.429V906.727V912.182H266.762H261.094V917.636V923.091H255.427H249.76V904.545V886H221.425H193.09V904.545ZM238.427 896.909V901.273H221.425H204.424V896.909V892.545H221.425H238.427V896.909ZM147.753 906.727V912.182H153.42H159.088V917.636V923.091H164.755H170.422V928.545V934H176.089H181.755V939.455V944.909H187.423H193.09V955.818V966.727H170.422H147.753V961.273V955.818H142.086H136.419V950.364V944.909H130.752H125.085V939.455V934H119.418H113.751V917.636V901.273H130.752H147.753V906.727ZM329.099 917.636V934H323.432H317.765V939.455V944.909H312.098H306.431V950.364V955.818H300.764H295.097V961.273V966.727H272.429H249.76V955.818V944.909H255.427H261.094V939.455V934H266.762H272.429V928.545V923.091H278.096H283.763V917.636V912.182H289.43H295.097V906.727V901.273H312.098H329.099V917.636ZM238.427 944.909V977.636H221.425H204.424V944.909V912.182H221.425H238.427V944.909ZM238.427 1004.91V1021.27H221.425H204.424V1004.91V988.545H221.425H238.427V1004.91ZM238.427 1064.91V1097.64H221.425H204.424V1064.91V1032.18H221.425H238.427V1064.91ZM193.09 1054V1064.91H187.423H181.755V1070.36V1075.82H176.089H170.422V1081.27V1086.73H164.755H159.088V1092.18V1097.64H153.42H147.753V1103.09V1108.55H130.752H113.751V1092.18V1075.82H119.418H125.085V1070.36V1064.91H130.752H136.419V1059.45V1054H142.086H147.753V1048.55V1043.09H170.422H193.09V1054ZM295.097 1048.55V1054H300.764H306.431V1059.45V1064.91H312.098H317.765V1070.36V1075.82H323.432H329.099V1092.18V1108.55H312.098H295.097V1103.09V1097.64H289.43H283.763V1092.18V1086.73H278.096H272.429V1081.27V1075.82H266.762H261.094V1070.36V1064.91H255.427H249.76V1054V1043.09H272.429H295.097V1048.55ZM238.427 1114V1119.45H221.425H204.424V1114V1108.55H221.425H238.427V1114Z" fill="#E6E8E6"/>
<path fill-rule="evenodd" clip-rule="evenodd" d="M188.556 904.545V923.091H190.823H193.09V904.545V886H190.823H188.556V904.545ZM282.63 895.273V900.182H277.529H272.429V900.727C272.429 901.247 272.402 901.273 271.862 901.273H271.295V906.182V911.091H266.195H261.094V911.636C261.094 912.156 261.068 912.182 260.528 912.182H259.961V917.091V922H254.861H249.76V922.545V923.091H255.427H261.094V917.636V912.182H266.762H272.429V906.727V901.273H278.096H283.763V895.818V890.364H283.196H282.63V895.273ZM204.424 893.636V894.727H219.158H233.893V898V901.273H236.159H238.427V896.909V892.545H221.425H204.424V893.636ZM113.751 904.545V907.818H129.619H145.487V910V912.182H146.62H147.753V914.364V916.545H152.287H156.82V919.818V923.091H157.954H159.088V924.182V925.273H164.188H169.288V929.636V934H169.855H170.422V935.091V936.182H175.522H180.622V940.545V944.909H181.189H181.755V939.455V934H176.089H170.422V928.545V923.091H164.755H159.088V917.636V912.182H153.42H147.753V906.727V901.273H130.752H113.751V904.545ZM295.097 903.455V905.636H310.965H326.833V919.818V934H327.966H329.099V917.636V901.273H312.098H295.097V903.455ZM204.424 913.273V914.364H219.158H233.893V946V977.636H236.159H238.427V944.909V912.182H221.425H204.424V913.273ZM102.417 947.091V949.273H107.517H112.617V952.545V955.818H113.184H113.751V958V960.182H118.851H123.952V963.455V966.727H124.518H125.085V968.909V971.091H130.185H135.286V974.364V977.636H135.852H136.419V979.818V982H141.52H146.62V985.273V988.545H147.187H147.753V989.636V990.727H168.155H188.556V1006V1021.27H190.823H193.09V1004.91V988.545H170.422H147.753V983.091V977.636H142.086H136.419V972.182V966.727H130.752H125.085V961.273V955.818H119.418H113.751V950.364V944.909H108.084H102.417V947.091ZM188.556 955.818V966.727H190.823H193.09V955.818V944.909H190.823H188.556V955.818ZM204.424 989.636V990.727H219.158H233.893V1006V1021.27H236.159H238.427V1004.91V988.545H221.425H204.424V989.636ZM249.76 989.636V990.727H272.429H295.097V989.636V988.545H272.429H249.76V989.636ZM146.62 1026.18V1031.09H141.52H136.419V1031.64C136.419 1032.16 136.392 1032.18 135.852 1032.18H135.286V1037.09V1042H130.185H125.085V1042.55C125.085 1043.07 125.058 1043.09 124.518 1043.09H123.952V1048V1052.91H118.851H113.751V1053.45C113.751 1053.97 113.724 1054 113.184 1054H112.617V1058.91V1063.82H107.517H102.417V1064.36C102.417 1064.88 102.39 1064.91 101.85 1064.91H101.284V1092.18V1119.45H101.85H102.417V1120.55V1121.64H130.185H157.954V1120.55V1119.45H130.185H102.417V1092.18V1064.91H108.084H113.751V1059.45V1054H119.418H125.085V1048.55V1043.09H130.752H136.419V1037.64V1032.18H142.086H147.753V1026.73V1021.27H147.187H146.62V1026.18ZM204.424 1033.27V1034.36H219.158H233.893V1066V1097.64H236.159H238.427V1064.91V1032.18H221.425H204.424V1033.27ZM147.753 1044.18V1045.27H168.155H188.556V1055.09V1064.91H190.823H193.09V1054V1043.09H170.422H147.753V1044.18ZM249.76 1045.27V1047.45H271.295H292.83V1050.73V1054H293.963H295.097V1056.18V1058.36H299.63H304.164V1061.64V1064.91H305.297H306.431V1066V1067.09H311.531H316.632V1071.45V1075.82H317.198H317.765V1070.36V1064.91H312.098H306.431V1059.45V1054H300.764H295.097V1048.55V1043.09H272.429H249.76V1045.27ZM188.556 1106.36V1126H190.823H193.09V1106.36V1086.73H190.823H188.556V1106.36ZM249.76 1088.91V1091.09H254.861H259.961V1094.36V1097.64H260.528H261.094V1099.82V1102H266.195H271.295V1105.27V1108.55H271.862H272.429V1110.73V1112.91H277.529H282.63V1116.18V1119.45H283.196H283.763V1120.55V1121.64H311.531H339.3V1120.55V1119.45H311.531H283.763V1114V1108.55H278.096H272.429V1103.09V1097.64H266.762H261.094V1092.18V1086.73H255.427H249.76V1088.91ZM204.424 1109.64V1110.73H219.158H233.893V1115.09V1119.45H236.159H238.427V1114V1108.55H221.425H204.424V1109.64Z" fill="#A4ACA4"/>
<path fill-rule="evenodd" clip-rule="evenodd" d="M193.09 476.545V495.091H187.423H181.755V489.636V484.182H176.089H170.422V478.727V473.273H164.755H159.088V467.818V462.364H130.752H102.417V489.636V516.909H108.084H113.751V522.364V527.818H119.418H125.085V533.273V538.727H130.752H136.419V544.182V549.636H142.086H147.753V555.091V560.545H170.422H193.09V576.909V593.273H170.422H147.753V598.727V604.182H142.086H136.419V609.636V615.091H130.752H125.085V620.545V626H119.418H113.751V631.455V636.909H108.084H102.417V664.182V691.455H130.752H159.088V686V680.545H164.755H170.422V675.091V669.636H176.089H181.755V664.182V658.727H187.423H193.09V678.364V698H221.425H249.76V678.364V658.727H255.427H261.094V664.182V669.636H266.762H272.429V675.091V680.545H278.096H283.763V686V691.455H312.098H340.433V664.182V636.909H334.766H329.099V631.455V626H323.432H317.765V620.545V615.091H312.098H306.431V609.636V604.182H300.764H295.097V598.727V593.273H272.429H249.76V576.909V560.545H272.429H295.097V555.091V549.636H300.764H306.431V544.182V538.727H312.098H317.765V533.273V527.818H323.432H329.099V522.364V516.909H334.766H340.433V489.636V462.364H312.098H283.763V467.818V473.273H278.096H272.429V478.727V484.182H266.762H261.094V489.636V495.091H255.427H249.76V476.545V458H221.425H193.09V476.545ZM238.427 468.909V473.273H221.425H204.424V468.909V464.545H221.425H238.427V468.909ZM147.753 478.727V484.182H153.42H159.088V489.636V495.091H164.755H170.422V500.545V506H176.089H181.755V511.455V516.909H187.423H193.09V527.818V538.727H170.422H147.753V533.273V527.818H142.086H136.419V522.364V516.909H130.752H125.085V511.455V506H119.418H113.751V489.636V473.273H130.752H147.753V478.727ZM329.099 489.636V506H323.432H317.765V511.455V516.909H312.098H306.431V522.364V527.818H300.764H295.097V533.273V538.727H272.429H249.76V527.818V516.909H255.427H261.094V511.455V506H266.762H272.429V500.545V495.091H278.096H283.763V489.636V484.182H289.43H295.097V478.727V473.273H312.098H329.099V489.636ZM238.427 516.909V549.636H221.425H204.424V516.909V484.182H221.425H238.427V516.909ZM238.427 576.909V593.273H221.425H204.424V576.909V560.545H221.425H238.427V576.909ZM238.427 636.909V669.636H221.425H204.424V636.909V604.182H221.425H238.427V636.909ZM193.09 626V636.909H187.423H181.755V642.364V647.818H176.089H170.422V653.273V658.727H164.755H159.088V664.182V669.636H153.42H147.753V675.091V680.545H130.752H113.751V664.182V647.818H119.418H125.085V642.364V636.909H130.752H136.419V631.455V626H142.086H147.753V620.545V615.091H170.422H193.09V626ZM295.097 620.545V626H300.764H306.431V631.455V636.909H312.098H317.765V642.364V647.818H323.432H329.099V664.182V680.545H312.098H295.097V675.091V669.636H289.43H283.763V664.182V658.727H278.096H272.429V653.273V647.818H266.762H261.094V642.364V636.909H255.427H249.76V626V615.091H272.429H295.097V620.545ZM238.427 686V691.455H221.425H204.424V686V680.545H221.425H238.427V686Z" fill="#E6E8E6"/>
<path fill-rule="evenodd" clip-rule="evenodd" d="M188.556 476.545V495.091H190.823H193.09V476.545V458H190.823H188.556V476.545ZM282.63 467.273V472.182H277.529H272.429V472.727C272.429 473.247 272.402 473.273 271.862 473.273H271.295V478.182V483.091H266.195H261.094V483.636C261.094 484.156 261.068 484.182 260.528 484.182H259.961V489.091V494H254.861H249.76V494.545V495.091H255.427H261.094V489.636V484.182H266.762H272.429V478.727V473.273H278.096H283.763V467.818V462.364H283.196H282.63V467.273ZM204.424 465.636V466.727H219.158H233.893V470V473.273H236.159H238.427V468.909V464.545H221.425H204.424V465.636ZM113.751 476.545V479.818H129.619H145.487V482V484.182H146.62H147.753V486.364V488.545H152.287H156.82V491.818V495.091H157.954H159.088V496.182V497.273H164.188H169.288V501.636V506H169.855H170.422V507.091V508.182H175.522H180.622V512.545V516.909H181.189H181.755V511.455V506H176.089H170.422V500.545V495.091H164.755H159.088V489.636V484.182H153.42H147.753V478.727V473.273H130.752H113.751V476.545ZM295.097 475.455V477.636H310.965H326.833V491.818V506H327.966H329.099V489.636V473.273H312.098H295.097V475.455ZM204.424 485.273V486.364H219.158H233.893V518V549.636H236.159H238.427V516.909V484.182H221.425H204.424V485.273ZM102.417 519.091V521.273H107.517H112.617V524.545V527.818H113.184H113.751V530V532.182H118.851H123.952V535.455V538.727H124.518H125.085V540.909V543.091H130.185H135.286V546.364V549.636H135.852H136.419V551.818V554H141.52H146.62V557.273V560.545H147.187H147.753V561.636V562.727H168.155H188.556V578V593.273H190.823H193.09V576.909V560.545H170.422H147.753V555.091V549.636H142.086H136.419V544.182V538.727H130.752H125.085V533.273V527.818H119.418H113.751V522.364V516.909H108.084H102.417V519.091ZM188.556 527.818V538.727H190.823H193.09V527.818V516.909H190.823H188.556V527.818ZM204.424 561.636V562.727H219.158H233.893V578V593.273H236.159H238.427V576.909V560.545H221.425H204.424V561.636ZM249.76 561.636V562.727H272.429H295.097V561.636V560.545H272.429H249.76V561.636ZM146.62 598.182V603.091H141.52H136.419V603.636C136.419 604.156 136.392 604.182 135.852 604.182H135.286V609.091V614H130.185H125.085V614.545C125.085 615.065 125.058 615.091 124.518 615.091H123.952V620V624.909H118.851H113.751V625.455C113.751 625.974 113.724 626 113.184 626H112.617V630.909V635.818H107.517H102.417V636.364C102.417 636.883 102.39 636.909 101.85 636.909H101.284V664.182V691.455H101.85H102.417V692.545V693.636H130.185H157.954V692.545V691.455H130.185H102.417V664.182V636.909H108.084H113.751V631.455V626H119.418H125.085V620.545V615.091H130.752H136.419V609.636V604.182H142.086H147.753V598.727V593.273H147.187H146.62V598.182ZM204.424 605.273V606.364H219.158H233.893V638V669.636H236.159H238.427V636.909V604.182H221.425H204.424V605.273ZM147.753 616.182V617.273H168.155H188.556V627.091V636.909H190.823H193.09V626V615.091H170.422H147.753V616.182ZM249.76 617.273V619.455H271.295H292.83V622.727V626H293.963H295.097V628.182V630.364H299.63H304.164V633.636V636.909H305.297H306.431V638V639.091H311.531H316.632V643.455V647.818H317.198H317.765V642.364V636.909H312.098H306.431V631.455V626H300.764H295.097V620.545V615.091H272.429H249.76V617.273ZM188.556 678.364V698H190.823H193.09V678.364V658.727H190.823H188.556V678.364ZM249.76 660.909V663.091H254.861H259.961V666.364V669.636H260.528H261.094V671.818V674H266.195H271.295V677.273V680.545H271.862H272.429V682.727V684.909H277.529H282.63V688.182V691.455H283.196H283.763V692.545V693.636H311.531H339.3V692.545V691.455H311.531H283.763V686V680.545H278.096H272.429V675.091V669.636H266.762H261.094V664.182V658.727H255.427H249.76V660.909ZM204.424 681.636V682.727H219.158H233.893V687.091V691.455H236.159H238.427V686V680.545H221.425H204.424V681.636Z" fill="#A4ACA4"/>
<path fill-rule="evenodd" clip-rule="evenodd" d="M193.11 48.5454V67.0908H187.433H181.757V61.6362V56.1816H176.08H170.404V50.727V45.273H164.727H159.05V39.8184V34.3638H130.667H102.284V61.6362V88.9092H107.96H113.637V94.3638V99.8184H119.313H124.99V105.273V110.727H130.667H136.343V116.182V121.636H142.02H147.697V127.091V132.545H170.404H193.11V148.909V165.273H170.404H147.697V170.727V176.182H142.02H136.343V181.636V187.091H130.667H124.99V192.545V198H119.313H113.637V203.455V208.909H107.96H102.284V236.182V263.455H130.667H159.05V258V252.545H164.727H170.404V247.091V241.636H176.08H181.757V236.182V230.727H187.433H193.11V250.364V270H221.494H249.877V250.364V230.727H255.553H261.23V236.182V241.636H266.907H272.584V247.091V252.545H278.26H283.937V258V263.455H312.32H340.704V236.182V208.909H335.027H329.35V203.455V198H323.674H317.997V192.545V187.091H312.32H306.643V181.636V176.182H300.967H295.291V170.727V165.273H272.584H249.877V148.909V132.545H272.584H295.291V127.091V121.636H300.967H306.643V116.182V110.727H312.32H317.997V105.273V99.8184H323.674H329.35V94.3638V88.9092H335.027H340.704V61.6362V34.3638H312.32H283.937V39.8184V45.273H278.26H272.584V50.727V56.1816H266.907H261.23V61.6362V67.0908H255.553H249.877V48.5454V30H221.494H193.11V48.5454ZM238.524 40.9092V45.273H221.494H204.464V40.9092V36.5454H221.494H238.524V40.9092ZM147.697 50.727V56.1816H153.374H159.05V61.6362V67.0908H164.727H170.404V72.5454V78H176.08H181.757V83.4546V88.9092H187.433H193.11V99.8184V110.727H170.404H147.697V105.273V99.8184H142.02H136.343V94.3638V88.9092H130.667H124.99V83.4546V78H119.313H113.637V61.6362V45.273H130.667H147.697V50.727ZM329.35 61.6362V78H323.674H317.997V83.4546V88.9092H312.32H306.643V94.3638V99.8184H300.967H295.291V105.273V110.727H272.584H249.877V99.8184V88.9092H255.553H261.23V83.4546V78H266.907H272.584V72.5454V67.0908H278.26H283.937V61.6362V56.1816H289.614H295.291V50.727V45.273H312.32H329.35V61.6362ZM238.524 88.9092V121.636H221.494H204.464V88.9092V56.1816H221.494H238.524V88.9092ZM238.524 148.909V165.273H221.494H204.464V148.909V132.545H221.494H238.524V148.909ZM238.524 208.909V241.636H221.494H204.464V208.909V176.182H221.494H238.524V208.909ZM193.11 198V208.909H187.433H181.757V214.364V219.818H176.08H170.404V225.273V230.727H164.727H159.05V236.182V241.636H153.374H147.697V247.091V252.545H130.667H113.637V236.182V219.818H119.313H124.99V214.364V208.909H130.667H136.343V203.455V198H142.02H147.697V192.545V187.091H170.404H193.11V198ZM295.291 192.545V198H300.967H306.643V203.455V208.909H312.32H317.997V214.364V219.818H323.674H329.35V236.182V252.545H312.32H295.291V247.091V241.636H289.614H283.937V236.182V230.727H278.26H272.584V225.273V219.818H266.907H261.23V214.364V208.909H255.553H249.877V198V187.091H272.584H295.291V192.545ZM238.524 258V263.455H221.494H204.464V258V252.545H221.494H238.524V258Z" fill="#E6E8E6"/>
<path fill-rule="evenodd" clip-rule="evenodd" d="M188.569 48.5454V67.0908H190.84H193.11V48.5454V30H190.84H188.569V48.5454ZM282.802 39.273V44.1816H277.693H272.584V44.727C272.584 45.2466 272.557 45.273 272.016 45.273H271.448V50.1816V55.0908H266.339H261.23V55.6362C261.23 56.1558 261.203 56.1816 260.663 56.1816H260.095V61.0908V66H254.986H249.877V66.5454V67.0908H255.553H261.23V61.6362V56.1816H266.907H272.584V50.727V45.273H278.26H283.937V39.8184V34.3638H283.37H282.802V39.273ZM204.463 37.6362V38.727H219.223H233.982V42V45.273H236.253H238.524V40.9092V36.5454H221.494H204.463V37.6362ZM113.637 48.5454V51.8184H129.531H145.426V54V56.1816H146.562H147.697V58.3638V60.5454H152.238H156.779V63.8184V67.0908H157.915H159.05V68.1816V69.273H164.159H169.268V73.6362V78H169.836H170.404V79.0908V80.1816H175.512H180.621V84.5454V88.9092H181.189H181.757V83.4546V78H176.08H170.404V72.5454V67.0908H164.727H159.05V61.6362V56.1816H153.374H147.697V50.727V45.273H130.667H113.637V48.5454ZM295.291 47.4546V49.6362H311.185H327.08V63.8184V78H328.215H329.35V61.6362V45.273H312.32H295.291V47.4546ZM204.463 57.273V58.3638H219.223H233.982V90V121.636H236.253H238.524V88.9092V56.1816H221.494H204.463V57.273ZM102.284 91.0908V93.273H107.393H112.501V96.5454V99.8184H113.069H113.637V102V104.182H118.746H123.855V107.455V110.727H124.422H124.99V112.909V115.091H130.099H135.208V118.364V121.636H135.776H136.343V123.818V126H141.452H146.562V129.273V132.545H147.129H147.697V133.636V134.727H168.133H188.569V150V165.273H190.84H193.11V148.909V132.545H170.404H147.697V127.091V121.636H142.02H136.343V116.182V110.727H130.667H124.99V105.273V99.8184H119.313H113.637V94.3638V88.9092H107.96H102.284V91.0908ZM188.569 99.8184V110.727H190.84H193.11V99.8184V88.9092H190.84H188.569V99.8184ZM204.463 133.636V134.727H219.223H233.982V150V165.273H236.253H238.524V148.909V132.545H221.494H204.463V133.636ZM249.877 133.636V134.727H272.584H295.291V133.636V132.545H272.584H249.877V133.636ZM146.562 170.182V175.091H141.452H136.343V175.636C136.343 176.156 136.316 176.182 135.776 176.182H135.208V181.091V186H130.099H124.99V186.545C124.99 187.065 124.963 187.091 124.422 187.091H123.855V192V196.909H118.746H113.637V197.455C113.637 197.974 113.61 198 113.069 198H112.501V202.909V207.818H107.393H102.284V208.364C102.284 208.883 102.256 208.909 101.716 208.909H101.148V236.182V263.455H101.716H102.284V264.545V265.636H130.099H157.915V264.545V263.455H130.099H102.284V236.182V208.909H107.96H113.637V203.455V198H119.313H124.99V192.545V187.091H130.667H136.343V181.636V176.182H142.02H147.697V170.727V165.273H147.129H146.562V170.182ZM204.463 177.273V178.364H219.223H233.982V210V241.636H236.253H238.524V208.909V176.182H221.494H204.463V177.273ZM147.697 188.182V189.273H168.133H188.569V199.091V208.909H190.84H193.11V198V187.091H170.404H147.697V188.182ZM249.877 189.273V191.455H271.448H293.02V194.727V198H294.155H295.291V200.182V202.364H299.831H304.373V205.636V208.909H305.508H306.643V210V211.091H311.753H316.862V215.455V219.818H317.429H317.997V214.364V208.909H312.32H306.643V203.455V198H300.967H295.291V192.545V187.091H272.584H249.877V189.273ZM188.569 250.364V270H190.84H193.11V250.364V230.727H190.84H188.569V250.364ZM249.877 232.909V235.091H254.986H260.095V238.364V241.636H260.663H261.23V243.818V246H266.339H271.448V249.273V252.545H272.016H272.584V254.727V256.909H277.693H282.802V260.182V263.455H283.37H283.937V264.545V265.636H311.753H339.569V264.545V263.455H311.753H283.937V258V252.545H278.26H272.584V247.091V241.636H266.907H261.23V236.182V230.727H255.553H249.877V232.909ZM204.463 253.636V254.727H219.223H233.982V259.091V263.455H236.253H238.524V258V252.545H221.494H204.463V253.636Z" fill="#A4ACA4"/>
</g>
<defs>
<filter id="filter0_i_588_424" x="71" y="0" width="300" height="1195" filterUnits="userSpaceOnUse" color-interpolation-filters="sRGB">
<feFlood flood-opacity="0" result="BackgroundImageFix"/>
<feBlend mode="normal" in="SourceGraphic" in2="BackgroundImageFix" result="shape"/>
<feColorMatrix in="SourceAlpha" type="matrix" values="0 0 0 0 0 0 0 0 0 0 0 0 0 0 0 0 0 0 127 0" result="hardAlpha"/>
<feMorphology radius="2" operator="erode" in="SourceAlpha" result="effect1_innerShadow_588_424"/>
<feOffset/>
<feGaussianBlur stdDeviation="12.5"/>
<feComposite in2="hardAlpha" operator="arithmetic" k2="-1" k3="1"/>
<feColorMatrix type="matrix" values="0 0 0 0 0.470833 0 0 0 0 0.470833 0 0 0 0 0.470833 0 0 0 0.25 0"/>
<feBlend mode="normal" in2="shape" result="effect1_innerShadow_588_424"/>
</filter>
<filter id="filter1_i_588_424" x="71" y="856" width="300" height="300" filterUnits="userSpaceOnUse" color-interpolation-filters="sRGB">
<feFlood flood-opacity="0" result="BackgroundImageFix"/>
<feBlend mode="normal" in="SourceGraphic" in2="BackgroundImageFix" result="shape"/>
<feColorMatrix in="SourceAlpha" type="matrix" values="0 0 0 0 0 0 0 0 0 0 0 0 0 0 0 0 0 0 127 0" result="hardAlpha"/>
<feMorphology radius="2" operator="erode" in="SourceAlpha" result="effect1_innerShadow_588_424"/>
<feOffset/>
<feGaussianBlur stdDeviation="12.5"/>
<feComposite in2="hardAlpha" operator="arithmetic" k2="-1" k3="1"/>
<feColorMatrix type="matrix" values="0 0 0 0 0.470833 0 0 0 0 0.470833 0 0 0 0 0.470833 0 0 0 0.25 0"/>
<feBlend mode="normal" in2="shape" result="effect1_innerShadow_588_424"/>
</filter>
<filter id="filter2_i_588_424" x="71" y="428" width="300" height="300" filterUnits="userSpaceOnUse" color-interpolation-filters="sRGB">
<feFlood flood-opacity="0" result="BackgroundImageFix"/>
<feBlend mode="normal" in="SourceGraphic" in2="BackgroundImageFix" result="shape"/>
<feColorMatrix in="SourceAlpha" type="matrix" values="0 0 0 0 0 0 0 0 0 0 0 0 0 0 0 0 0 0 127 0" result="hardAlpha"/>
<feMorphology radius="2" operator="erode" in="SourceAlpha" result="effect1_innerShadow_588_424"/>
<feOffset/>
<feGaussianBlur stdDeviation="12.5"/>
<feComposite in2="hardAlpha" operator="arithmetic" k2="-1" k3="1"/>
<feColorMatrix type="matrix" values="0 0 0 0 0.470833 0 0 0 0 0.470833 0 0 0 0 0.470833 0 0 0 0.25 0"/>
<feBlend mode="normal" in2="shape" result="effect1_innerShadow_588_424"/>
</filter>
<filter id="filter3_i_588_424" x="71" y="0" width="300" height="300" filterUnits="userSpaceOnUse" color-interpolation-filters="sRGB">
<feFlood flood-opacity="0" result="BackgroundImageFix"/>
<feBlend mode="normal" in="SourceGraphic" in2="BackgroundImageFix" result="shape"/>
<feColorMatrix in="SourceAlpha" type="matrix" values="0 0 0 0 0 0 0 0 0 0 0 0 0 0 0 0 0 0 127 0" result="hardAlpha"/>
<feMorphology radius="2" operator="erode" in="SourceAlpha" result="effect1_innerShadow_588_424"/>
<feOffset/>
<feGaussianBlur stdDeviation="12.5"/>
<feComposite in2="hardAlpha" operator="arithmetic" k2="-1" k3="1"/>
<feColorMatrix type="matrix" values="0 0 0 0 0.470833 0 0 0 0 0.470833 0 0 0 0 0.470833 0 0 0 0.25 0"/>
<feBlend mode="normal" in2="shape" result="effect1_innerShadow_588_424"/>
</filter>
<clipPath id="clip0_588_424">
<rect width="341" height="1180" fill="white" transform="translate(0 15)"/>
</clipPath>
<clipPath id="clip1_588_424">
<rect width="247" height="39" fill="white" transform="translate(99 1126)"/>
</clipPath>
<clipPath id="clip2_588_424">
<rect width="247" height="99" fill="white" transform="translate(99 698)"/>
</clipPath>
<clipPath id="clip3_588_424">
<rect width="246" height="99" fill="white" transform="translate(99 787)"/>
</clipPath>
<clipPath id="clip4_588_424">
<rect width="246" height="99" fill="white" transform="translate(99 359)"/>
</clipPath>
<clipPath id="clip5_588_424">
<rect width="247" height="99" fill="white" transform="translate(99 270)"/>
</clipPath>
</defs>
</svg>
