<svg width="36" height="33" viewBox="0 0 36 33" fill="none" xmlns="http://www.w3.org/2000/svg">
<path d="M35.162 0.998105C34.8388 0.715716 34.4453 0.52818 34.0243 0.455813C33.6032 0.383446 33.1706 0.429009 32.7733 0.587564L1.84369 12.8782C1.37196 13.0656 0.972919 13.4025 0.706281 13.8385C0.439644 14.2745 0.319745 14.7861 0.364525 15.2967C0.409305 15.8074 0.616357 16.2896 0.954699 16.6713C1.29304 17.053 1.74448 17.3136 2.24146 17.4142L10.3672 19.0579V29.2616C10.3668 29.7312 10.5041 30.1903 10.7619 30.5808C11.0196 30.9714 11.3862 31.2758 11.8151 31.4554C12.244 31.6351 12.7159 31.682 13.1712 31.5902C13.6264 31.4983 14.0445 31.2719 14.3724 30.9395L18.9425 26.317L25.7776 32.4011C26.2027 32.7829 26.7513 32.9941 27.3198 32.9947C27.5669 32.9945 27.8125 32.9551 28.0476 32.878C28.4354 32.7536 28.7841 32.5285 29.059 32.2252C29.334 31.9219 29.5255 31.551 29.6145 31.1495L35.918 3.3266C36.014 2.90566 35.9943 2.46616 35.8611 2.05572C35.7278 1.64528 35.4861 1.27953 35.162 0.998105ZM2.36773 15.1169C2.35688 15.0434 2.37215 14.9684 2.41083 14.9051C2.44952 14.8419 2.50911 14.7946 2.57901 14.7716L28.4593 4.48746L11.1397 17.1397L2.6358 15.4194C2.56297 15.4092 2.49606 15.3732 2.44697 15.3179C2.39789 15.2625 2.36981 15.1913 2.36773 15.1169ZM12.9504 29.5013C12.9035 29.5487 12.8438 29.581 12.7788 29.5941C12.7138 29.6072 12.6464 29.6005 12.5852 29.5748C12.5239 29.5492 12.4716 29.5057 12.4347 29.45C12.3979 29.3942 12.3782 29.3287 12.3783 29.2616V20.474L17.4298 24.9705L12.9504 29.5013ZM27.6542 30.695C27.6413 30.7523 27.6138 30.8052 27.5746 30.8485C27.5353 30.8918 27.4856 30.924 27.4304 30.942C27.3751 30.9601 27.3162 30.9633 27.2593 30.9514C27.2025 30.9394 27.1497 30.9128 27.106 30.874L12.9828 18.3026L33.9285 3.00132L27.6542 30.695Z" fill="black"/>
</svg>
