<svg width="41" height="34" viewBox="0 0 41 34" fill="none" xmlns="http://www.w3.org/2000/svg">
<g clip-path="url(#clip0_1131_317)">
<path d="M39.7694 4.29739C39.6054 4.21816 39.4823 4.13892 39.3182 4.05968C39.5233 3.50502 39.5233 3.06922 39.4823 2.87112C39.4413 2.19761 39.0311 1.64295 38.4158 1.36561C37.8005 1.08828 37.0622 1.1279 36.4879 1.52409C35.3394 2.31646 34.1908 2.59379 33.3294 2.67303C31.6886 1.326 29.5967 0.573242 27.3816 0.573242C22.3362 0.573242 18.2343 4.49549 18.1523 9.36858C11.5892 8.61583 6.37972 2.75227 6.29769 2.67303C5.88749 2.23723 5.31322 1.95989 4.69793 2.03913C4.08264 2.07875 3.54939 2.43532 3.22124 2.95036C1.33435 6.15947 1.94964 9.05163 2.81104 10.9929C2.35983 11.3099 2.0727 11.8646 2.0727 12.4192C1.99066 15.6679 3.3443 17.7677 4.73895 19.0355C4.57487 19.4317 4.57487 19.8279 4.69793 20.2241C5.55934 22.8785 7.24113 24.384 8.79986 25.2557C6.09259 26.2065 3.09818 25.8499 2.64697 25.7707C2.60595 25.7707 2.60595 25.7707 2.56493 25.7707C1.74454 25.6915 0.965175 26.0876 0.596002 26.8404C0.226828 27.6328 0.472944 28.5044 1.21129 29.0194C5.31322 32.0701 10.3176 32.704 13.7632 32.704C16.1833 32.704 17.9472 32.387 18.4394 32.3078H18.4804C35.3394 28.5044 36.734 14.4794 36.775 10.676C38.9491 8.69506 40.2617 7.18955 40.5078 6.31794C40.7539 5.56519 40.4257 4.7332 39.7694 4.29739ZM35.0932 9.48744L34.7651 9.80439V10.2402C34.7651 12.9343 34.1088 26.7612 18.0292 30.3665C17.619 30.4457 15.9782 30.723 13.7632 30.723C10.7688 30.723 6.50278 30.208 2.9341 27.8309C4.57487 27.9893 8.6768 28.1082 11.7943 25.9688L13.5581 24.7406L11.4661 24.1859C9.82535 23.7501 7.69234 22.6408 6.70788 19.7883L8.26661 19.194L6.78992 18.1243C5.02609 16.8169 4.12366 14.9944 4.08264 12.6965L7.15909 14.2813L5.23118 11.191C4.2057 9.52705 3.30328 6.99146 4.94405 4.13892C5.96953 5.24824 11.9173 11.2703 19.2598 11.4287L20.4493 11.4684L20.2853 10.3194C20.2442 10.0817 20.2442 9.80439 20.2442 9.48744C20.2442 5.68405 23.4438 2.55417 27.4226 2.55417C29.2275 2.55417 30.9913 3.22769 32.3039 4.41625L32.6321 4.69358H33.0423C34.1498 4.65396 35.7495 4.37663 37.4313 3.34655C37.3493 3.6635 37.1442 4.17854 36.5289 4.89167L34.3549 7.5065L37.6364 6.47642C37.8826 6.39718 38.0877 6.31795 38.2517 6.23871C37.8826 6.75375 37.0211 7.78383 35.0932 9.48744Z" fill="black"/>
</g>
<defs>
<clipPath id="clip0_1131_317">
<rect width="41" height="33" fill="white" transform="translate(0 0.118652)"/>
</clipPath>
</defs>
</svg>
